<svg xmlns="http://www.w3.org/2000/svg" width="19" height="18" viewBox="0 0 19 18">
  <g id="coffee-cup" transform="translate(0 -15.457)">
    <g id="Group_38" data-name="Group 38" transform="translate(4.142 15.457)">
      <g id="Group_37" data-name="Group 37" transform="translate(0 0)">
        <path id="Path_38" data-name="Path 38" d="M112.888,17.413c0-.124.024-.156.153-.307a1.512,1.512,0,0,0,.434-1.066.584.584,0,1,0-1.168,0c0,.123-.024.156-.153.307a1.526,1.526,0,0,0,0,2.132c.129.151.153.183.153.307s-.024.156-.153.307a2.309,2.309,0,0,0-.22.289.584.584,0,1,0,.993.615,1.327,1.327,0,0,1,.114-.145,1.526,1.526,0,0,0,0-2.132C112.912,17.569,112.888,17.537,112.888,17.413Z" transform="translate(-111.72 -15.457)" fill="#fff"/>
      </g>
    </g>
    <g id="Group_40" data-name="Group 40" transform="translate(6.68 15.457)">
      <g id="Group_39" data-name="Group 39" transform="translate(0 0)">
        <path id="Path_39" data-name="Path 39" d="M181.339,17.413c0-.124.024-.156.153-.307a1.512,1.512,0,0,0,.434-1.066.584.584,0,1,0-1.168,0c0,.123-.024.156-.153.307a1.526,1.526,0,0,0,0,2.132c.129.151.153.183.153.307s-.024.156-.153.307a2.309,2.309,0,0,0-.22.289.584.584,0,1,0,.993.615,1.327,1.327,0,0,1,.114-.145,1.526,1.526,0,0,0,0-2.132C181.363,17.569,181.339,17.537,181.339,17.413Z" transform="translate(-180.171 -15.457)" fill="#fff"/>
      </g>
    </g>
    <g id="Group_42" data-name="Group 42" transform="translate(9.218 15.457)">
      <g id="Group_41" data-name="Group 41" transform="translate(0 0)">
        <path id="Path_40" data-name="Path 40" d="M249.79,17.413c0-.124.024-.156.153-.307a1.512,1.512,0,0,0,.434-1.066.584.584,0,1,0-1.168,0c0,.123-.024.156-.153.307a1.526,1.526,0,0,0,0,2.132c.129.151.153.183.153.307s-.024.156-.153.307a2.3,2.3,0,0,0-.22.29.584.584,0,1,0,.993.615,1.333,1.333,0,0,1,.114-.145,1.526,1.526,0,0,0,0-2.132C249.814,17.569,249.79,17.537,249.79,17.413Z" transform="translate(-248.622 -15.457)" fill="#fff"/>
      </g>
    </g>
    <g id="Group_44" data-name="Group 44" transform="translate(0 21.961)">
      <g id="Group_43" data-name="Group 43">
        <path id="Path_41" data-name="Path 41" d="M17.788,190.775a3.108,3.108,0,0,0-2.756.171c-.043-.4-.1-.793-.179-1.181a.58.58,0,0,0-.568-.469H.827a.58.58,0,0,0-.568.469A13.671,13.671,0,0,0,0,192.428a13.073,13.073,0,0,0,.823,4.642,10.087,10.087,0,0,0,2.227,3.552.576.576,0,0,0,.408.17h8.2a.577.577,0,0,0,.408-.17,9.44,9.44,0,0,0,1.585-2.153,6.254,6.254,0,0,0,3.945-2.255A5.829,5.829,0,0,0,19,192.771,2.157,2.157,0,0,0,17.788,190.775Zm-6.378,8.849H3.7a10.681,10.681,0,0,1-2.544-7.2,12.585,12.585,0,0,1,.153-1.965H13.8a12.584,12.584,0,0,1,.153,1.965A10.681,10.681,0,0,1,11.411,199.624Zm2.855-2.493.024-.061a13.074,13.074,0,0,0,.823-4.642c0-.058,0-.116,0-.174a2.238,2.238,0,0,1,2.176-.427.976.976,0,0,1,.555.944A5.178,5.178,0,0,1,14.266,197.132Z" transform="translate(0 -189.296)" fill="#fff"/>
      </g>
    </g>
  </g>
</svg>
