<svg xmlns="http://www.w3.org/2000/svg" width="15" height="10" viewBox="0 0 15 10">
  <path id="electric-car" d="M14.18,13.8l-.879-.682-.011-.009.819-.159a.229.229,0,0,0,.188-.223v-.682a.231.231,0,0,0-.234-.227H12.891a.231.231,0,0,0-.234.227v.4l-.016-.021a.221.221,0,0,0-.074-.1,3.334,3.334,0,0,1-.319-.519l-.4-.845A1.818,1.818,0,0,0,10.313,10H4.688a1.818,1.818,0,0,0-1.539.961l-.4.845a3.336,3.336,0,0,1-.319.52.223.223,0,0,0-.074.1l-.016.021v-.4a.231.231,0,0,0-.234-.227H.938a.231.231,0,0,0-.234.227v.682a.229.229,0,0,0,.188.223l.819.159-.011.009L.82,13.8A2.337,2.337,0,0,0,0,15.455v3.864A.694.694,0,0,0,.7,20H2.578a.694.694,0,0,0,.7-.682v-.455h8.438v.455a.694.694,0,0,0,.7.682H14.3a.694.694,0,0,0,.7-.682V15.455A2.337,2.337,0,0,0,14.18,13.8Zm-2.13,4.609-.537-.521a1.547,1.547,0,0,0-.966-.388H4.336a1.547,1.547,0,0,0-.966.388l-.537.521H1.172a.694.694,0,0,1-.7-.682V16.591H.7v.227a.925.925,0,0,0,.937.909h.7a.227.227,0,1,0,0-.455h-.7a.462.462,0,0,1-.469-.455v-.227h.469a1.1,1.1,0,0,1,.634.255.239.239,0,0,0,.331,0,.222.222,0,0,0,0-.321,1.547,1.547,0,0,0-.966-.388H.469v-.682A1.271,1.271,0,0,1,.5,15.2a.906.906,0,0,0,.671.255H3.047a.238.238,0,0,0,.166-.067l.3-.294.3.294a.238.238,0,0,0,.166.067H6.7l.634.615a.239.239,0,0,0,.331,0l.634-.615h2.715a.238.238,0,0,0,.166-.067l.3-.294.3.294a.238.238,0,0,0,.166.067h1.875A.906.906,0,0,0,14.5,15.2a1.272,1.272,0,0,1,.032.255v.682H13.359a1.547,1.547,0,0,0-.966.388.222.222,0,0,0,0,.321.239.239,0,0,0,.331,0,1.1,1.1,0,0,1,.634-.255h.469v.227a.462.462,0,0,1-.469.455h-.7a.227.227,0,1,0,0,.455h.7a.925.925,0,0,0,.938-.909v-.227h.234v1.136a.694.694,0,0,1-.7.682Zm-.663,0H3.5l.206-.2a1.1,1.1,0,0,1,.634-.255h6.211a1.1,1.1,0,0,1,.634.255ZM2.709,12.727h9.581a4.447,4.447,0,0,0,.717.745l.282.219-1.658.643h0a.235.235,0,0,0-.078.05l-.234.227-.4.388H8.2a.238.238,0,0,0-.166.067l-.537.521-.537-.521A.238.238,0,0,0,6.8,15H4.081l-.4-.388-.234-.227a.235.235,0,0,0-.078-.05h0l-1.658-.643.282-.219a4.467,4.467,0,0,0,.717-.746Zm11.574,1.913a.414.414,0,0,1-.455.359H12.05l-.234-.227.035-.034,1.86-.721.177.137A1.645,1.645,0,0,1,14.283,14.641Zm-1.158-2.368h.7v.268l-.7.136Zm-9.946-.279.4-.845a1.354,1.354,0,0,1,1.112-.695h5.625a1.353,1.353,0,0,1,1.112.694l.4.845a3.041,3.041,0,0,0,.154.279H3.026a2.986,2.986,0,0,0,.154-.279Zm-2.007.279h.7v.4l-.7-.136Zm-.059,1.882.177-.137,1.86.721.035.034L2.95,15H1.172a.414.414,0,0,1-.455-.359,1.644,1.644,0,0,1,.4-.486Zm1.465,5.39H.7a.231.231,0,0,1-.234-.227v-.687a1.185,1.185,0,0,0,.7.233H2.813v.455A.231.231,0,0,1,2.578,19.545Zm11.719,0H12.422a.231.231,0,0,1-.234-.227v-.455h1.641a1.185,1.185,0,0,0,.7-.233v.688A.231.231,0,0,1,14.3,19.545Z" transform="translate(0 -10)" fill="rgba(255,255,255,0.7)"/>
</svg>
