<svg xmlns="http://www.w3.org/2000/svg" width="9" height="10" viewBox="0 0 9 10">
  <path id="Path_37" data-name="Path 37" d="M38.851,3.809l1.089-1.6a.293.293,0,0,0-.25-.455h-3a.3.3,0,0,1-.3-.293h0a.891.891,0,0,0-.9-.879H33.339A.9.9,0,0,0,32.491,0a.891.891,0,0,0-.9.879V9.414h-.3a.293.293,0,1,0,0,.586h2.4a.293.293,0,1,0,0-.586h-.3V5.273h2.451a.9.9,0,0,0,.848.586h3a.293.293,0,0,0,.25-.455Zm-6.06,5.605h-.6V.879a.3.3,0,0,1,.6,0Zm3-4.727h-2.4V1.172h2.1a.3.3,0,0,1,.3.293Zm.9.586a.3.3,0,0,1-.3-.293V2.293a.915.915,0,0,0,.3.05H39.13l-.889,1.3a.287.287,0,0,0,0,.325l.889,1.3Z" transform="translate(-30.991)" fill="rgba(255,255,255,0.7)"/>
</svg>
