<svg id="Group_1" data-name="Group 1" xmlns="http://www.w3.org/2000/svg" width="30.444" height="30.444" viewBox="0 0 30.444 30.444">
  <path id="Path_1" data-name="Path 1" d="M18,27v3.806l11.418,5.709V47.933l3.806,1.9V34.612Z" transform="translate(-14.194 -21.294)" fill="#fed501"/>
  <path id="Path_2" data-name="Path 2" d="M54,9v3.806l11.418,5.709V29.933l3.806,1.9V16.612Z" transform="translate(-42.585 -7.097)" fill="#fed501"/>
  <path id="Path_3" data-name="Path 3" d="M15.222,0,0,7.611V22.833l3.806,1.9V9.514L15.222,3.806,26.639,9.514V20.93L15.222,26.639,7.611,22.833v3.806l7.611,3.806,15.222-7.611V7.611Z" fill="#025fbf"/>
  <path id="Path_4" data-name="Path 4" d="M7.612,18,0,21.806v3.805l7.612-3.805L19.03,27.514V38.93l-7.612,3.805,3.806,1.9,7.612-3.805V25.611Z" transform="translate(0 -14.194)" fill="#025fbf"/>
  <path id="Path_5" data-name="Path 5" d="M0,36v3.806l11.418,5.709V56.933l3.806,1.9V43.612Z" transform="translate(0 -28.391)" fill="#025fbf"/>
  <path id="Path_6" data-name="Path 6" d="M18,74.418l3.806,1.9V72.515l3.806,1.9V66.806L18,63Z" transform="translate(-14.194 -49.682)" fill="#fed501"/>
</svg>
