<svg xmlns="http://www.w3.org/2000/svg" width="27" height="13.463" viewBox="0 0 27 13.463">
  <g id="speedometer" transform="translate(0.001)">
    <path id="Path_26" data-name="Path 26" d="M265.548,3.955A13.474,13.474,0,0,0,256,0V3.672a9.809,9.809,0,0,1,6.952,2.88Zm0,0" transform="translate(-242.501)" fill="#feca57"/>
    <path id="Path_27" data-name="Path 27" d="M74.934,3.955l2.6,2.6a9.811,9.811,0,0,1,6.952-2.88V0a13.47,13.47,0,0,0-9.548,3.955Zm0,0" transform="translate(-70.983)" fill="#15ba8b"/>
    <path id="Path_28" data-name="Path 28" d="M74.934,3.955l2.6,2.6a9.811,9.811,0,0,1,6.952-2.88V0a13.47,13.47,0,0,0-9.548,3.955Zm0,0" transform="translate(-70.983)" fill="#15ba8b"/>
    <path id="Path_29" data-name="Path 29" d="M0,84.259a.244.244,0,0,0,.243.249H3.43a.242.242,0,0,0,.242-.234A9.808,9.808,0,0,1,6.547,77.6L3.951,75A13.47,13.47,0,0,0,0,84.259Zm0,0" transform="translate(0 -71.045)" fill="#54a0ff"/>
    <path id="Path_30" data-name="Path 30" d="M76.606,3.9A13.751,13.751,0,0,1,84.224.055a13.476,13.476,0,0,0-9.291,3.952l.826.826q.4-.482.847-.929Zm0,0" transform="translate(-70.983 -0.052)" fill="#11aa7b"/>
    <path id="Path_31" data-name="Path 31" d="M1.875,84.509a.246.246,0,0,1-.246-.252,13.608,13.608,0,0,1,3.147-8.43L3.951,75A13.47,13.47,0,0,0,0,84.259a.244.244,0,0,0,.243.249H1.875Zm0,0" transform="translate(0 -71.045)" fill="#338def"/>
    <path id="Path_32" data-name="Path 32" d="M390.421,75l-2.6,2.6a9.81,9.81,0,0,1,2.875,6.677.242.242,0,0,0,.242.234h3.188a.244.244,0,0,0,.243-.249A13.481,13.481,0,0,0,390.421,75Zm0,0" transform="translate(-367.373 -71.045)" fill="#ff6b6b"/>
  </g>
</svg>
