<svg xmlns="http://www.w3.org/2000/svg" width="13.463" height="13.463" viewBox="0 0 13.463 13.463">
  <g id="speedometer2" transform="translate(10.335 25.271) rotate(-140)">
    <path id="Path_33" data-name="Path 33" d="M195.313,141.613l1.972-6.381a.344.344,0,0,0-.43-.43l-6.381,1.972a3.869,3.869,0,1,0,4.839,4.839Zm0,0" transform="translate(-177.845 -127.678)" fill="#ff6b6b"/>
    <path id="Path_34" data-name="Path 34" d="M190.51,143.208a3.869,3.869,0,0,1,1.594-6.433l5.194-1.605a.344.344,0,0,0-.443-.367l-6.381,1.972a3.869,3.869,0,0,0,1.947,7.481A3.827,3.827,0,0,1,190.51,143.208Zm0,0" transform="translate(-177.845 -127.679)" fill="#ee5253"/>
    <path id="Path_35" data-name="Path 35" d="M231.568,212.526a1.66,1.66,0,1,0,0,2.348A1.66,1.66,0,0,0,231.568,212.526Zm0,0" transform="translate(-216.673 -200.858)" fill="#ee5253"/>
    <path id="Path_36" data-name="Path 36" d="M231.228,212.265a1.66,1.66,0,1,0,0,2.876A1.662,1.662,0,0,1,231.228,212.265Zm0,0" transform="translate(-216.676 -200.861)" fill="#d83941"/>
  </g>
</svg>
